<?xml version="1.0" encoding="UTF-8"?><svg id="a" xmlns="http://www.w3.org/2000/svg" viewBox="0 0 72 72"><defs><style>.b{fill:#3452ad;fill-rule:evenodd;}</style></defs><path class="b" d="M36,60.14c-13.32,0-24.15-10.83-24.15-24.15S22.68,11.85,36,11.85s24.15,10.83,24.15,24.15-10.83,24.15-24.15,24.15ZM15.97,33.39c8.18,0,18.09-9.36,18.09-17.5-9.36,.88-16.88,8.22-18.09,17.5ZM37.84,15.89c0,8.11,10.05,17.5,18.2,17.5-1.21-9.32-8.77-16.66-18.2-17.5h0Zm18.35,21.28c-7.3,0-18.35,11.93-18.35,18.94,9.91-.88,17.76-8.95,18.35-18.94Zm-22.13,18.94c0-6.27-10.57-18.94-18.24-18.94,.59,9.94,8.4,18.02,18.24,18.94Zm37.94-20.11c0,19.89-16.11,36-36,36S0,55.89,0,36,16.11,0,36,0s36,16.11,36,36h0Z"/></svg>